<?xml version="1.0" standalone="no"?>
<!DOCTYPE svg PUBLIC "-//W3C//DTD SVG 20010904//EN"
 "http://www.w3.org/TR/2001/REC-SVG-20010904/DTD/svg10.dtd">
<svg version="1.0" xmlns="http://www.w3.org/2000/svg"
 width="1024.000000pt" height="1024.000000pt" viewBox="0 0 1024.000000 1024.000000"
 preserveAspectRatio="xMidYMid meet">
<metadata>
Created by potrace 1.14, written by Peter Selinger 2001-2017
</metadata>
<g transform="translate(0.000000,1024.000000) scale(0.100000,-0.100000)"
fill="#000000" stroke="none">
<path d="M5114 9170 c-44 -18 -53 -67 -20 -103 40 -43 88 -25 108 41 3 12 2
22 -3 22 -5 0 -9 6 -9 13 0 11 -43 40 -53 36 -1 0 -12 -4 -23 -9z m60 -43 c3
-12 1 -24 -4 -25 -6 -2 -8 -7 -5 -12 3 -4 -4 -10 -15 -13 -11 -3 -20 -1 -20 5
0 5 -4 6 -10 3 -5 -3 -10 -2 -10 4 0 5 -3 16 -6 24 -7 20 22 46 45 40 10 -3
22 -15 25 -26z"/>
<path d="M4528 9089 c-26 -15 -23 -63 5 -82 21 -13 26 -13 50 1 33 20 35 55 5
76 -26 18 -36 19 -60 5z m51 -23 c9 -11 8 -17 -4 -30 -19 -18 -42 -12 -42 12
0 30 27 41 46 18z"/>
<path d="M5398 9070 c-16 -16 -28 -33 -28 -38 0 -5 -7 -15 -15 -22 -13 -11
-14 -10 -10 1 4 11 -2 14 -22 13 -16 -1 -34 -3 -41 -3 -7 -1 -11 -5 -7 -10 3
-5 0 -13 -6 -17 -8 -4 -9 -3 -5 4 4 7 1 12 -8 12 -9 0 -16 -5 -16 -11 0 -6 -7
-8 -16 -5 -13 5 -14 3 -6 -7 8 -10 6 -16 -9 -25 -11 -7 -24 -10 -29 -7 -6 4
-10 2 -10 -4 0 -7 -8 -7 -26 0 -22 8 -25 7 -16 -3 8 -10 -1 -14 -41 -16 -29
-2 -65 -4 -82 -5 -24 -2 -31 2 -33 20 -6 45 -77 70 -108 39 -8 -8 -17 -28 -20
-44 -3 -16 -11 -29 -17 -29 -73 -2 -339 -43 -439 -68 -20 -5 -28 0 -49 32 -13
21 -42 47 -64 58 -22 11 -42 21 -44 23 -10 5 9 14 41 17 18 2 36 4 41 4 13 2
8 21 -8 27 -15 6 -392 -109 -480 -146 -11 -4 -56 -22 -100 -40 -44 -17 -99
-40 -122 -51 -24 -10 -46 -19 -49 -19 -9 0 -198 -92 -204 -99 -3 -4 -27 -17
-55 -31 -27 -14 -52 -27 -55 -30 -3 -3 -23 -14 -45 -25 -22 -11 -45 -25 -52
-32 -7 -6 -22 -15 -33 -18 -11 -3 -20 -11 -20 -16 0 -5 -4 -9 -10 -9 -10 0
-132 -80 -161 -106 -9 -8 -19 -11 -22 -7 -4 3 -7 1 -7 -6 0 -20 -45 -31 -82
-20 -54 16 -71 20 -108 20 -132 1 -257 -99 -290 -233 -12 -46 -12 -46 -41 -36
-16 5 -29 15 -29 21 0 6 -3 7 -6 4 -4 -3 -16 -1 -28 5 -33 19 -105 16 -148 -4
-42 -20 -109 -85 -133 -127 -25 -46 -73 -149 -81 -176 -5 -16 -25 -98 -30
-120 -2 -11 -6 -31 -9 -45 -4 -14 -8 -43 -10 -65 -3 -22 -7 -65 -10 -95 -3
-30 -8 -64 -10 -75 -2 -11 -4 -30 -4 -42 -1 -12 -7 -28 -14 -35 -8 -7 -68 -97
-135 -198 -66 -102 -126 -191 -132 -197 -6 -7 -8 -13 -5 -13 4 0 -3 -13 -13
-28 -11 -15 -64 -116 -117 -225 -53 -108 -102 -197 -110 -197 -27 0 -112 -90
-135 -142 -26 -59 -33 -176 -12 -215 10 -17 9 -24 -2 -35 -19 -19 -96 -181
-96 -201 0 -9 -5 -17 -12 -17 -6 0 -9 -3 -6 -6 3 -3 -7 -37 -22 -77 -23 -61
-31 -72 -53 -75 -38 -5 -77 -46 -77 -82 0 -16 4 -30 9 -30 16 0 20 -28 10 -62
-5 -18 -12 -48 -15 -67 -3 -18 -8 -43 -10 -55 -34 -152 -35 -403 -3 -551 30
-135 79 -283 131 -395 17 -36 32 -87 34 -115 2 -27 6 -72 9 -100 3 -27 7 -75
9 -105 3 -30 7 -68 9 -85 5 -27 10 -69 22 -180 5 -56 14 -105 25 -140 4 -16
12 -52 16 -80 9 -63 8 -59 28 -125 9 -30 16 -55 15 -55 -1 0 12 -58 17 -75 3
-8 5 -15 4 -15 0 0 11 -34 26 -75 14 -41 27 -80 28 -87 1 -7 5 -16 9 -19 4 -4
7 -16 7 -26 0 -10 5 -18 10 -18 6 0 9 -3 8 -7 -1 -9 6 -27 47 -118 15 -33 31
-69 36 -80 5 -11 22 -42 39 -70 17 -27 33 -58 37 -67 3 -10 9 -18 14 -18 5 0
9 -4 9 -10 0 -10 113 -174 137 -198 7 -7 13 -16 13 -20 0 -4 13 -21 28 -38 15
-17 40 -49 57 -69 16 -21 42 -51 57 -66 16 -15 28 -29 28 -32 0 -13 241 -245
330 -317 30 -25 57 -48 58 -52 2 -5 10 -8 17 -8 7 0 15 -4 17 -8 2 -5 32 -28
68 -53 36 -24 67 -47 68 -51 2 -5 8 -8 13 -8 5 0 38 -18 74 -40 36 -22 70 -40
75 -40 6 0 10 -4 10 -10 0 -5 5 -10 10 -10 6 0 30 -10 53 -21 110 -56 138 -69
144 -71 5 -1 29 -12 54 -25 26 -13 53 -23 61 -23 8 0 18 -4 23 -8 6 -5 31 -16
56 -26 40 -14 47 -21 47 -44 0 -79 39 -122 111 -122 37 0 49 5 82 40 l39 40
112 -41 c62 -22 118 -42 123 -43 6 -1 25 -10 43 -19 18 -10 37 -15 41 -12 5 3
11 1 13 -3 3 -8 224 -87 276 -99 12 -3 22 -9 22 -14 0 -5 8 -9 18 -9 9 0 46
-10 82 -21 36 -11 72 -22 80 -24 8 -2 15 -4 15 -5 0 -1 8 -3 17 -5 9 -2 33 -8
53 -15 26 -9 40 -9 48 -1 11 11 3 16 -43 25 -35 7 -142 36 -160 43 -8 3 -19 5
-24 4 -4 -1 -13 2 -20 7 -6 5 -31 15 -56 22 -25 8 -56 20 -70 27 -14 7 -31 13
-39 13 -11 0 -11 3 -1 15 7 9 20 15 29 14 23 -3 51 11 51 25 0 7 16 20 36 29
27 13 34 22 29 36 -5 18 -3 19 24 8 l29 -11 -45 -40 c-26 -23 -54 -46 -62 -53
-9 -7 -11 -13 -6 -13 22 -3 43 -10 125 -40 102 -38 212 -70 221 -64 4 2 9 0
11 -5 2 -8 30 -16 71 -20 4 -1 3 -10 -3 -21 -6 -11 -11 -40 -12 -64 -1 -54 25
-92 83 -122 34 -18 48 -20 87 -12 47 8 102 49 102 75 0 10 12 12 48 9 26 -3
47 -5 47 -6 0 0 32 -3 70 -6 39 -3 81 -7 95 -9 24 -5 168 -16 237 -19 28 -1
61 -16 35 -16 -14 0 -25 -54 -17 -80 3 -11 18 -26 33 -34 58 -30 111 26 91 97
-6 22 -4 27 9 27 61 0 255 10 292 15 25 3 70 7 100 10 105 10 135 13 175 20
65 10 89 14 115 20 14 3 36 7 50 10 14 3 35 7 48 10 51 12 61 14 93 19 19 3
45 8 59 12 14 3 34 7 45 9 11 2 21 4 23 5 3 3 11 5 55 14 20 5 40 12 43 17 3
5 9 7 13 4 5 -2 48 9 97 26 49 17 100 33 113 35 14 3 28 7 33 10 4 3 16 7 25
9 23 6 182 63 208 75 11 5 40 18 65 28 164 70 267 117 281 129 9 7 18 11 21 8
3 -3 11 1 18 10 7 8 16 15 21 15 11 0 133 73 141 85 4 5 8 6 8 1 0 -5 8 -2 18
6 9 8 38 26 65 38 26 13 47 29 47 37 0 7 4 13 10 13 13 0 100 62 100 72 0 4 5
8 11 8 6 0 32 17 57 38 26 20 51 40 57 45 75 57 157 130 292 260 53 52 79 70
104 73 74 9 85 11 123 27 21 9 41 17 43 17 14 0 105 86 124 117 31 49 46 125
43 205 -2 43 1 72 9 80 7 7 58 74 114 148 56 74 113 149 127 165 37 43 34 40
114 158 39 59 72 112 72 117 0 6 4 10 8 10 16 0 172 278 172 308 0 6 4 12 10
12 5 0 9 3 8 8 -1 4 10 32 24 64 14 31 29 67 33 80 3 12 10 32 15 43 14 30 69
198 74 226 3 13 5 24 6 24 2 0 3 5 34 126 13 53 27 116 30 140 3 24 9 55 12
69 3 14 7 41 8 61 2 20 5 40 8 45 4 5 9 47 13 94 3 47 8 105 11 129 3 25 7 92
9 150 2 58 5 108 6 111 1 3 0 10 -1 15 -7 32 -6 55 2 55 5 0 6 5 2 11 -3 6 -8
43 -10 83 -7 156 -24 319 -33 326 -3 3 -6 21 -7 40 -1 19 -4 51 -8 70 -4 19
-9 46 -10 60 -16 109 -72 310 -88 310 -6 0 -8 -10 -5 -22 3 -13 15 -59 26
-103 12 -44 23 -90 25 -103 3 -12 7 -30 10 -40 3 -9 8 -34 11 -54 9 -66 15
-102 20 -128 8 -38 16 -100 20 -155 2 -27 5 -50 5 -50 4 0 12 -206 13 -305 0
-150 -16 -402 -33 -500 -5 -30 -12 -73 -16 -95 -5 -34 -28 -156 -39 -205 -16
-69 -52 -192 -81 -275 -20 -55 -37 -104 -38 -110 -5 -17 -17 -49 -32 -83 -8
-18 -14 -39 -14 -47 0 -7 -3 -15 -7 -17 -5 -2 -18 -23 -29 -48 l-22 -45 5 46
c6 49 -24 125 -53 136 -17 6 -14 39 8 93 8 19 16 40 18 45 6 22 12 41 25 75 7
19 13 38 13 43 1 4 3 22 6 40 3 17 8 50 11 71 3 21 7 48 10 60 3 12 7 35 10
51 3 17 8 46 12 65 3 19 6 43 7 52 0 11 12 19 33 23 57 10 88 87 53 130 -8 9
-27 23 -42 31 -28 15 -29 17 -24 72 3 31 5 100 5 152 1 99 1 118 2 148 4 166
2 503 -4 538 -3 17 -13 53 -22 79 -11 35 -13 56 -6 74 28 74 44 222 27 249 -3
6 -2 13 4 17 7 4 7 12 0 26 -6 10 -9 19 -7 19 3 0 0 19 -5 43 -4 23 -11 56
-14 72 -3 17 -14 44 -24 61 -10 18 -24 57 -31 88 -7 31 -16 59 -21 62 -4 3 -8
16 -8 28 0 13 -18 67 -40 120 -22 53 -40 102 -40 110 0 8 -6 16 -12 19 -25 8
1 19 56 24 55 4 67 -2 45 -24 -6 -6 -9 -18 -7 -27 5 -28 36 3 43 44 16 87 17
156 1 200 -9 25 -18 49 -19 54 -5 21 -84 89 -125 107 -24 11 -69 21 -100 22
-54 3 -57 4 -77 43 -31 59 -219 335 -281 414 -56 70 -202 238 -256 294 -37 38
-64 74 -60 80 13 21 18 102 8 143 -13 61 -64 122 -131 159 -41 23 -61 27 -124
26 -63 0 -79 3 -99 22 -13 11 -40 36 -60 54 -20 18 -47 41 -59 52 -12 11 -25
20 -28 20 -8 0 -109 83 -113 93 -2 4 -10 7 -17 7 -7 0 -15 4 -17 8 -3 8 -122
93 -233 167 -33 22 -62 42 -65 45 -3 3 -22 14 -42 25 -21 11 -38 23 -38 27 0
5 -9 8 -19 8 -11 0 -21 4 -23 8 -3 9 -66 46 -160 95 -35 18 -72 38 -83 44 -28
15 -77 37 -160 68 -38 15 -78 31 -87 36 -10 5 -27 9 -38 9 -11 0 -20 4 -20 9
0 8 -56 25 -72 22 -5 0 -8 4 -8 11 0 6 -3 9 -6 6 -3 -3 -35 5 -72 19 -37 13
-74 26 -83 28 -9 2 -39 11 -65 20 -27 9 -56 18 -64 20 -8 2 -53 12 -100 23
-47 11 -98 23 -115 25 -16 3 -55 10 -85 16 -30 5 -73 13 -95 16 -22 3 -53 8
-70 11 -44 8 -91 13 -175 18 -72 5 -76 4 -102 -24z m142 -9 c0 -4 -9 -7 -20
-7 -11 0 -20 6 -20 12 0 7 8 10 20 7 11 -3 20 -8 20 -12z m2105 -901 c3 -5 1
-10 -4 -10 -6 0 -11 5 -11 10 0 6 2 10 4 10 3 0 8 -4 11 -10z m45 -44 c0 -4
-9 -1 -19 6 -11 7 -17 16 -15 20 5 8 34 -15 34 -26z m-5410 0 c48 -14 110 -49
114 -65 21 -73 18 -85 -41 -137 -102 -88 -198 -187 -278 -284 -43 -52 -82 -96
-87 -98 -4 -2 -8 -8 -8 -13 0 -8 -6 -17 -52 -71 -10 -12 -18 -25 -18 -30 0 -4
-5 -8 -11 -8 -5 0 -8 4 -5 9 6 10 12 46 21 136 4 33 10 78 15 100 5 22 11 54
14 70 3 17 14 56 25 88 11 31 18 57 15 57 -2 0 3 12 13 27 9 14 18 33 19 41 2
8 6 18 11 21 5 3 14 18 20 34 7 15 17 27 23 27 5 0 10 5 10 11 0 12 71 79 85
80 20 1 47 8 51 12 5 5 33 2 64 -7z m5904 -503 c41 -43 86 -94 102 -113 16
-19 33 -40 39 -46 5 -6 24 -28 40 -49 17 -21 41 -52 55 -69 40 -48 122 -163
176 -246 74 -113 74 -113 87 -142 6 -16 15 -28 19 -28 4 0 8 -9 8 -21 0 -11
-4 -17 -10 -14 -5 3 -10 1 -10 -4 0 -6 -6 -11 -12 -11 -7 -1 -24 -14 -38 -30
-13 -17 -29 -30 -35 -30 -5 0 -30 26 -55 58 -24 31 -48 59 -52 60 -4 2 -8 7
-8 12 0 5 -20 30 -45 55 -25 26 -43 51 -40 55 9 15 5 158 -5 168 -1 1 -3 5 -4
10 -3 19 -31 78 -42 89 -7 7 -21 23 -31 35 -10 13 -41 41 -68 63 -55 44 -205
191 -205 201 0 6 52 72 58 73 2 1 36 -34 76 -76z m-6117 -57 c0 -8 -5 -14 -11
-13 -9 2 -11 -2 -15 -34 0 -5 -6 -7 -13 -3 -7 4 -8 3 -4 -5 4 -6 2 -19 -5 -27
-6 -8 -9 -17 -7 -20 12 -11 -50 -67 -67 -60 -9 3 -14 2 -10 -4 3 -6 -1 -13 -9
-16 -9 -3 -14 -10 -11 -14 3 -5 1 -11 -5 -15 -6 -4 -7 -11 -4 -17 4 -7 2 -8
-5 -4 -8 6 -9 12 -2 20 6 7 8 16 4 19 -3 4 2 9 11 13 9 3 14 10 11 14 -3 5 4
15 15 23 11 7 17 17 13 20 -3 4 0 7 7 7 7 0 11 3 7 6 -5 5 2 15 67 91 32 38
33 38 33 19z m-202 -256 c-5 -8 -10 -56 -20 -190 -1 -19 -3 -36 -4 -37 0 -1
-14 2 -29 7 -34 9 -57 -1 -95 -43 -30 -33 -43 -68 -33 -93 7 -18 -14 -53 -69
-109 -22 -24 -52 -67 -65 -96 -14 -30 -29 -57 -35 -61 -5 -4 -6 -8 -2 -8 4 0
3 -9 -3 -21 -6 -11 -13 -29 -16 -40 -2 -10 -6 -28 -8 -38 -10 -43 -27 -61 -56
-61 l-30 0 16 38 c9 20 19 46 22 57 3 11 9 24 14 30 4 5 39 71 76 145 57 114
127 234 159 275 34 43 63 85 63 91 0 12 104 164 113 164 4 0 5 -4 2 -10z m98
-49 c-3 -11 -11 -22 -19 -25 -11 -4 -11 0 2 19 20 30 24 31 17 6z m-727 -1265
c-14 -27 -27 -48 -27 -46 -7 24 -4 48 4 43 6 -4 7 -1 2 7 -5 8 -4 11 3 6 6 -3
13 -3 16 2 2 4 -5 9 -16 9 -14 1 -24 -7 -31 -28 -11 -28 -37 -41 -37 -18 0 5
4 8 9 5 5 -4 7 3 4 14 -3 11 0 20 6 20 6 0 10 3 9 8 -1 4 6 24 16 45 l18 37
25 -26 25 -27 -26 -51z m60 -1 c1 -7 -4 -16 -11 -19 -8 -3 -12 2 -10 12 2 9 4
21 4 26 1 13 14 -2 17 -19z m-89 -70 c-10 -11 -13 -11 -15 1 -2 8 -9 14 -15
14 -7 0 -6 4 3 10 21 13 43 -7 27 -25z m-212 -387 c-4 -24 -11 -45 -16 -49 -5
-3 -9 -19 -9 -35 1 -55 -7 -141 -14 -152 -3 -6 -2 -13 4 -17 6 -4 7 -13 2 -23
-8 -16 -7 -173 0 -334 2 -43 0 -78 -4 -78 -4 0 -9 10 -10 23 -3 36 -6 62 -8
67 -6 17 -9 72 -9 200 0 187 0 200 8 196 3 -2 5 13 5 35 -1 21 1 39 5 39 4 0
6 12 5 28 0 15 3 36 7 47 4 11 10 37 14 58 3 20 10 37 16 37 6 0 8 -17 4 -42z
m8063 -26 c-1 -10 0 -22 4 -27 5 -8 19 -104 20 -135 1 -37 -4 -60 -12 -55 -6
4 -8 10 -5 15 6 10 -22 149 -33 164 -9 12 -9 23 2 48 10 21 28 13 24 -10z m19
-264 c-3 -7 -5 -2 -5 12 0 14 2 19 5 13 2 -7 2 -19 0 -25z m-19 -17 c1 -17 -1
-31 -6 -31 -4 0 -8 16 -9 35 -1 43 12 39 15 -4z m12 -56 c0 -8 -5 -15 -11 -15
-5 0 -8 4 -5 9 4 5 0 12 -6 14 -8 3 -6 6 5 6 9 1 17 -6 17 -14z m0 -52 c0 -14
-3 -23 -7 -19 -10 10 -11 46 -1 46 4 0 8 -12 8 -27z m-7989 -570 c8 -55 8 -76
-1 -67 -14 14 -21 74 -9 74 5 0 10 -3 10 -7z m7955 -236 c-3 -12 -5 -35 -5
-50 -1 -16 -5 -26 -10 -22 -5 3 -6 17 -2 33 4 15 7 37 6 49 -1 12 2 20 7 17 4
-3 6 -15 4 -27z m-54 -255 c8 -8 8 -12 1 -12 -6 0 -9 -13 -7 -30 3 -23 0 -30
-14 -30 -14 0 -14 -2 -3 -9 9 -6 11 -15 6 -27 -4 -11 -7 -27 -6 -36 1 -10 -2
-18 -7 -18 -5 0 -13 -16 -16 -35 -5 -24 -11 -33 -19 -29 -9 5 -9 4 0 -6 9 -9
9 -17 2 -26 -14 -17 -46 -6 -52 17 -3 10 -1 16 4 13 5 -3 12 3 15 13 3 10 10
26 15 35 12 24 11 31 -3 21 -7 -4 -5 5 5 20 13 19 14 27 5 28 -10 0 -10 2 0 6
6 2 12 9 12 15 0 6 8 17 18 25 11 10 12 12 2 8 -10 -4 -9 -2 2 8 10 8 15 17
11 21 -4 3 -8 15 -10 25 -3 21 19 23 39 3z m-32 -598 c-23 -43 -46 -80 -51
-82 -5 -2 -9 -10 -9 -17 0 -8 -6 -20 -13 -27 -7 -7 -49 -64 -92 -126 -43 -62
-80 -111 -82 -108 -2 2 15 43 38 92 23 49 42 94 44 99 1 6 12 31 24 57 11 25
24 60 27 78 5 24 13 32 35 37 16 3 29 10 29 15 0 5 4 7 9 4 5 -4 24 9 43 27
18 19 34 33 36 32 1 -1 -16 -38 -38 -81z m-174 13 c4 -4 16 -7 27 -7 21 0 20
-18 -5 -77 -6 -15 -12 -33 -13 -39 -2 -6 -19 -45 -38 -86 -19 -42 -32 -79 -29
-82 3 -3 0 -6 -7 -6 -7 0 -17 -13 -22 -30 -6 -16 -15 -30 -21 -30 -5 0 -7 -4
-4 -9 3 -5 -1 -12 -10 -15 -8 -3 -12 -10 -9 -16 13 -20 -11 -9 -27 14 -15 20
-15 26 -3 50 9 16 10 24 3 20 -8 -5 -9 -1 -4 12 5 10 10 29 11 41 2 12 26 68
53 125 27 57 53 113 56 125 6 20 27 25 42 10z m-162 -212 c-26 -53 -51 -98
-55 -100 -18 -12 -14 35 5 57 23 26 48 65 73 115 9 18 19 31 21 28 2 -2 -17
-47 -44 -100z m2 -201 c-3 -8 0 -11 10 -7 7 3 14 0 14 -6 0 -6 -4 -11 -9 -11
-5 0 -13 -10 -17 -22 -4 -13 -14 -29 -23 -36 -12 -10 -12 -12 -1 -6 10 5 9 0
-4 -14 -32 -37 -44 -23 -19 23 6 11 9 27 8 36 -2 9 3 16 11 16 11 0 11 -3 1
-16 -11 -14 -10 -14 6 -2 13 10 14 17 7 26 -8 9 -8 15 0 20 6 3 7 11 4 17 -5
7 -2 8 5 4 7 -5 10 -14 7 -22z m-769 -688 c-4 -11 -1 -13 10 -9 11 4 14 2 9
-5 -4 -7 -14 -12 -22 -12 -9 0 -12 -5 -8 -11 4 -8 0 -8 -15 0 -20 11 -30 24
-13 19 4 -2 8 1 9 6 1 8 23 25 32 26 2 0 1 -7 -2 -14z m93 -66 c9 0 7 -6 -6
-18 -10 -10 -27 -17 -37 -14 -17 4 -17 5 0 19 10 8 13 12 8 9 -6 -2 -11 4 -11
14 0 17 2 18 16 5 9 -8 23 -15 30 -15z m87 -42 c8 -6 -7 -26 -49 -66 -34 -31
-79 -74 -101 -94 -22 -21 -41 -38 -42 -38 -1 0 -25 -20 -51 -45 -44 -40 -91
-76 -255 -197 -50 -37 -79 -48 -79 -29 0 6 -9 8 -21 6 -14 -3 -19 0 -17 11 2
8 7 16 13 17 5 1 23 15 40 30 16 15 48 40 70 55 22 15 42 29 45 32 3 3 36 32
75 65 38 33 79 68 90 78 11 10 37 33 58 50 21 18 62 53 90 80 29 26 57 51 62
56 11 10 53 4 72 -11z m-127 -2 c0 -2 -8 -10 -18 -19 -16 -15 -18 -15 -18 1 0
10 8 19 18 19 10 1 18 0 18 -1z m-5463 -321 c12 -4 25 -16 28 -26 4 -10 11
-19 16 -19 6 0 7 5 3 12 -4 7 -3 8 4 4 6 -4 9 -13 6 -20 -4 -12 -10 -12 -33 0
-15 8 -36 23 -46 34 -10 11 -22 17 -28 13 -5 -3 -7 -1 -4 5 7 10 14 10 54 -3z
m131 -20 c14 -15 21 -29 16 -37 -6 -10 -5 -10 8 0 9 7 18 9 20 5 5 -12 65 -53
78 -53 5 0 10 -3 10 -8 0 -4 16 -16 35 -26 19 -11 35 -23 35 -28 0 -5 5 -6 10
-3 6 3 10 2 10 -2 0 -11 55 -44 95 -58 35 -13 136 -77 130 -83 -9 -10 -192 72
-206 91 -3 5 -9 8 -13 8 -20 -3 -26 0 -21 9 3 5 0 7 -8 4 -8 -3 -18 -1 -22 5
-3 6 -14 11 -23 11 -10 0 -23 9 -30 21 -7 11 -18 19 -25 16 -15 -5 -48 24 -40
36 3 5 -4 6 -18 2 -23 -7 -24 -7 -4 9 l20 15 -20 2 c-11 1 -26 2 -32 2 -7 -1
-10 3 -7 8 3 5 -12 7 -32 4 -36 -4 -37 -4 -17 10 12 8 30 12 40 9 15 -5 15 -4
3 5 -8 6 -24 8 -35 6 -11 -3 -14 -2 -7 1 6 3 10 10 6 15 -6 10 3 29 14 29 4 0
17 -11 30 -25z m160 -15 c12 -11 25 -20 31 -20 13 0 21 -27 14 -47 -4 -11 -3
-14 5 -9 8 5 10 2 6 -8 -5 -12 -11 -9 -33 13 -15 15 -33 25 -40 23 -8 -3 -11
0 -8 6 4 5 -2 12 -13 15 -11 3 -20 13 -20 22 0 9 5 13 10 10 6 -3 10 -1 10 4
0 17 14 13 38 -9z m-145 -65 c-3 -9 -8 -14 -10 -11 -3 3 -2 9 2 15 9 16 15 13
8 -4z m515 -65 c6 0 12 -4 14 -8 2 -5 36 -31 76 -57 l72 -48 -21 -20 c-20 -19
-21 -19 -45 4 -13 12 -24 19 -24 15 0 -5 -6 -4 -12 2 -18 13 -78 9 -106 -9
-21 -12 -25 -12 -36 4 -7 9 -18 17 -23 17 -5 0 -17 8 -26 18 -15 17 -15 19 13
35 16 10 34 33 41 52 l13 34 27 -20 c15 -10 32 -19 37 -19z m172 -15 c30 -16
57 -30 60 -32 3 -3 -8 -15 -24 -28 l-29 -23 -31 21 c-17 12 -32 25 -34 30 -2
4 -9 7 -16 7 -7 0 -23 12 -37 27 -13 15 -17 22 -8 15 14 -10 18 -10 22 2 8 19
28 15 97 -19z m147 -110 c1 -14 -2 -25 -6 -25 -13 0 -101 40 -101 46 0 3 10
14 23 24 21 18 23 18 52 0 19 -12 31 -28 32 -45z m-29 -47 c21 -9 45 -35 67
-73 19 -31 35 -59 35 -61 0 -2 -20 5 -44 16 -24 10 -47 16 -50 13 -3 -4 -6 -1
-6 5 0 7 -3 11 -7 10 -8 -2 -81 21 -98 31 -5 3 -16 6 -24 8 -37 5 -40 50 -5
80 26 22 27 22 63 4 20 -9 51 -24 69 -33z m647 -142 c22 -8 72 -28 112 -44 39
-17 74 -28 77 -24 3 3 6 1 6 -5 0 -6 10 -13 23 -15 12 -3 67 -17 122 -32 55
-16 111 -30 125 -32 14 -3 53 -11 88 -19 34 -8 77 -17 95 -20 72 -13 140 -35
158 -51 22 -19 25 -43 7 -45 -16 -2 -11 -2 -83 6 -33 3 -91 8 -130 11 -58 4
-73 8 -85 26 -63 93 -146 116 -227 63 -25 -16 -66 -15 -116 4 -14 5 -28 7 -31
4 -3 -4 -6 0 -6 7 0 7 -3 11 -6 8 -7 -7 -68 8 -109 27 -49 22 -129 49 -138 47
-5 -2 -7 2 -5 7 4 12 71 89 78 90 3 0 23 -6 45 -13z m610 -300 c11 -2 54 -7
95 -11 94 -8 110 -13 110 -30 0 -11 -6 -12 -22 -6 -13 5 -40 7 -60 6 -21 -2
-38 0 -38 4 0 3 -33 6 -74 7 -86 1 -108 7 -100 28 5 14 24 15 89 2z"/>
<path d="M8915 3900 c3 -5 8 -10 11 -10 2 0 4 5 4 10 0 6 -5 10 -11 10 -5 0
-7 -4 -4 -10z"/>
<path d="M8610 3106 c0 -2 6 -9 14 -15 11 -9 16 -9 22 0 4 8 3 9 -4 5 -7 -4
-12 -2 -12 3 0 6 -4 11 -10 11 -5 0 -10 -2 -10 -4z"/>
<path d="M7010 8722 c0 -31 19 -46 46 -35 9 3 14 15 12 32 -2 20 -9 27 -30 29
-25 3 -28 0 -28 -26z"/>
<path d="M8120 8236 c0 -9 5 -16 10 -16 6 0 10 4 10 9 0 6 -4 13 -10 16 -5 3
-10 -1 -10 -9z"/>
<path d="M1501 7317 c-13 -16 -6 -57 10 -68 20 -12 54 6 57 30 6 42 -41 69
-67 38z"/>
<path d="M8640 7287 c-25 -20 -18 -60 13 -75 25 -12 31 -12 48 4 47 43 -11
112 -61 71z m50 -27 c0 -5 -2 -10 -4 -10 -2 0 -12 -3 -20 -6 -12 -5 -15 -2
-10 10 7 17 34 22 34 6z"/>
<path d="M1385 7138 c-37 -20 -74 -61 -80 -88 -9 -42 21 -105 63 -132 62 -40
130 -22 172 48 37 58 9 143 -55 168 -35 13 -79 15 -100 4z"/>
<path d="M1286 6841 c-32 -36 -8 -79 39 -67 35 9 36 58 1 74 -20 9 -27 7 -40
-7z m44 -31 c0 -11 -7 -20 -15 -20 -15 0 -21 21 -8 33 12 13 23 7 23 -13z"/>
<path d="M1049 4435 c-8 -7 -1 -145 7 -148 10 -3 14 142 4 148 -4 2 -9 3 -11
0z"/>
<path d="M2726 1592 c-2 -4 -1 -14 4 -21 10 -17 31 -5 23 14 -6 16 -19 20 -27
7z"/>
<path d="M3964 1059 c-3 -6 -1 -16 5 -22 9 -9 14 -8 21 3 9 15 4 30 -10 30 -5
0 -12 -5 -16 -11z"/>
</g>
</svg>
