<svg width="30" height="30" viewBox="0 0 136 136" fill="none" xmlns="http://www.w3.org/2000/svg">
<circle cx="68" cy="68" r="64.5" stroke="#141617" stroke-width="7"/>
<path d="M63.9091 78.9091V78.6364C63.9394 75.7424 64.2424 73.4394 64.8182 71.7273C65.3939 70.0152 66.2121 68.6288 67.2727 67.5682C68.3333 66.5076 69.6061 65.5303 71.0909 64.6364C71.9848 64.0909 72.7879 63.447 73.5 62.7045C74.2121 61.947 74.7727 61.0758 75.1818 60.0909C75.6061 59.1061 75.8182 58.0152 75.8182 56.8182C75.8182 55.3333 75.4697 54.0455 74.7727 52.9545C74.0758 51.8636 73.1439 51.0227 71.9773 50.4318C70.8106 49.8409 69.5152 49.5455 68.0909 49.5455C66.8485 49.5455 65.6515 49.803 64.5 50.3182C63.3485 50.8333 62.3864 51.6439 61.6136 52.75C60.8409 53.8561 60.3939 55.303 60.2727 57.0909H54.5455C54.6667 54.5152 55.3333 52.3106 56.5455 50.4773C57.7727 48.6439 59.3864 47.2424 61.3864 46.2727C63.4015 45.303 65.6364 44.8182 68.0909 44.8182C70.7576 44.8182 73.0758 45.3485 75.0455 46.4091C77.0303 47.4697 78.5606 48.9242 79.6364 50.7727C80.7273 52.6212 81.2727 54.7273 81.2727 57.0909C81.2727 58.7576 81.0152 60.2652 80.5 61.6136C80 62.9621 79.2727 64.1667 78.3182 65.2273C77.3788 66.2879 76.2424 67.2273 74.9091 68.0455C73.5758 68.8788 72.5076 69.7576 71.7045 70.6818C70.9015 71.5909 70.3182 72.6742 69.9545 73.9318C69.5909 75.1894 69.3939 76.7576 69.3636 78.6364V78.9091H63.9091ZM66.8182 92.3636C65.697 92.3636 64.7348 91.9621 63.9318 91.1591C63.1288 90.3561 62.7273 89.3939 62.7273 88.2727C62.7273 87.1515 63.1288 86.1894 63.9318 85.3864C64.7348 84.5833 65.697 84.1818 66.8182 84.1818C67.9394 84.1818 68.9015 84.5833 69.7045 85.3864C70.5076 86.1894 70.9091 87.1515 70.9091 88.2727C70.9091 89.0152 70.7197 89.697 70.3409 90.3182C69.9773 90.9394 69.4848 91.4394 68.8636 91.8182C68.2576 92.1818 67.5758 92.3636 66.8182 92.3636Z" fill="black"/>
</svg>
